<?xml version="1.0" encoding="iso-8859-1"?>
<!-- Generator: Adobe Illustrator 19.0.0, SVG Export Plug-In . SVG Version: 6.00 Build 0)  -->
<svg version="1.1" id="&#x56FE;&#x5C42;_1" xmlns="http://www.w3.org/2000/svg" xmlns:xlink="http://www.w3.org/1999/xlink" x="0px"
	 y="0px" viewBox="0 0 904 529" style="enable-background:new 0 0 904 529;" xml:space="preserve">
<g id="XMLID_1_">
	<g id="XMLID_4675_">
		<g id="XMLID_4683_">
			<linearGradient id="XMLID_16_" gradientUnits="userSpaceOnUse" x1="413.7265" y1="161.9378" x2="295.3884" y2="230.2098">
				<stop  offset="0" style="stop-color:#F6B57E"/>
				<stop  offset="0.9848" style="stop-color:#CE7C29"/>
			</linearGradient>
			<path id="XMLID_4685_" style="fill:url(#XMLID_16_);" d="M391.188,164.723c-0.826-3.14-4.041-5.018-7.181-4.191
				c-3.14,0.825-5.017,4.04-4.191,7.18c0.016,0.06,1.558,6.179,0.947,12.867c-0.742,8.121-4.132,13.15-10.365,15.373
				c-5.6,1.998-11.843,3.054-18.449,4.067c1.244-3.587,2.166-7.8,2.757-12.635c1.182-9.66,0.669-18.503,0.647-18.875
				c-0.195-3.24-2.976-5.713-6.218-5.513c-3.24,0.193-5.71,2.977-5.518,6.217c0.005,0.082,0.471,8.278-0.599,16.891
				c-1.413,11.373-4.339,15.179-5.989,16.441c-12.159,2.558-24.409,7.121-33.778,18.824c-11.562,14.443-11.002,36.629-10.973,37.566
				c0.1,3.182,2.711,5.694,5.873,5.694c0.062,0,0.126-0.001,0.188-0.003c3.245-0.102,5.793-2.816,5.691-6.061
				c-0.001-0.046-0.117-4.791,0.889-10.864c0.374-2.258,0.942-4.894,1.788-7.608c6.08,2.435,11.701,3.654,16.827,3.654
				c4.572,0,8.752-0.97,12.508-2.91c10.881-5.62,13.58-17.294,13.69-17.788c0.703-3.17-1.297-6.309-4.467-7.012
				c-3.169-0.701-6.309,1.297-7.012,4.467c-0.015,0.067-1.658,6.814-7.607,9.886c-4.648,2.401-10.966,2.092-18.794-0.91
				c0.19-0.257,0.379-0.515,0.578-0.764c6.788-8.479,15.681-12.14,25.502-14.349c0.149,0.012,0.3,0.018,0.45,0.018
				c0.739,0,1.49-0.14,2.217-0.436c0.199-0.081,0.396-0.169,0.591-0.258c3.408-0.657,6.907-1.191,10.454-1.73
				c7.599-1.154,15.457-2.348,22.705-4.934c10.536-3.758,16.972-12.771,18.124-25.378
				C393.279,172.816,391.273,165.05,391.188,164.723z"/>
			<linearGradient id="XMLID_17_" gradientUnits="userSpaceOnUse" x1="181.2049" y1="210.0219" x2="295.5121" y2="210.0219">
				<stop  offset="0" style="stop-color:#F6B57E"/>
				<stop  offset="0.9848" style="stop-color:#CE7C29"/>
			</linearGradient>
			<path id="XMLID_4684_" style="fill:url(#XMLID_17_);" d="M293.032,229.784c5.07-10.256,0.825-21.267,0.642-21.731
				c-1.193-3.019-4.608-4.5-7.628-3.307c-3.02,1.193-4.5,4.609-3.307,7.628c0.026,0.065,2.448,6.748-0.246,12.198
				c-1.477,2.987-4.367,5.282-8.6,6.846c-5.376-7.099-12.069-12.47-19.84-15.955c-0.041-0.094-0.076-0.189-0.122-0.282
				c-12.773-25.759-8.101-51.252-8.03-51.63c0.623-3.182-1.449-6.268-4.631-6.896c-3.185-0.629-6.277,1.443-6.906,4.629
				c-0.212,1.071-4.551,24.027,5.117,50.049c-0.313-0.044-0.626-0.089-0.941-0.128c-20.225-2.484-33.924-9.107-40.715-19.684
				c-8.043-12.526-3.661-26.991-3.567-27.293c0.994-3.08-0.689-6.387-3.768-7.394c-3.086-1.007-6.406,0.676-7.415,3.762
				c-0.261,0.799-6.272,19.776,4.757,37.123c8.743,13.751,25.321,22.214,49.275,25.157c12.74,1.565,22.717,7.912,29.653,18.864
				c5.401,8.528,6.899,16.797,6.91,16.862c0.486,2.869,2.974,4.898,5.789,4.898c0.326,0,0.657-0.027,0.989-0.084
				c3.201-0.543,5.357-3.577,4.814-6.779c-0.057-0.339-1.216-6.962-5.156-15.057C286.124,238.924,290.466,234.974,293.032,229.784z"
				/>
		</g>
		<linearGradient id="XMLID_18_" gradientUnits="userSpaceOnUse" x1="212.863" y1="293.2604" x2="372.2597" y2="293.2604">
			<stop  offset="0" style="stop-color:#F6B57E"/>
			<stop  offset="0.9848" style="stop-color:#F1AD00"/>
		</linearGradient>
		<path id="XMLID_4682_" style="fill:url(#XMLID_18_);" d="M369.333,316.175c1.797-2.924,3.664-6.337,2.632-9.61
			c-1.228-3.894-5.774-5.429-9.634-6.76c-17.013-5.869-19.902-17.836-35.004-27.625c-15.102-9.788-33.056-17.748-50.674-14.072
			c-1.037,0.216-2.114,0.472-3.142,0.215c-1.005-0.252-1.822-0.959-2.633-1.604c-10.132-8.057-24.156-8.702-37.092-8.204
			c-7.112,0.274-14.369,0.821-20.923,3.594c17.529,3.645,34.46,10.153,49.918,19.187c-2.893,9.466-2.899,25.653,1.783,34.373
			c7.613,14.178,56.813,56.893,103.167,13.508L369.333,316.175z"/>
		<path id="XMLID_4681_" style="fill:#8F625B;" d="M212.863,252.108c0,0,4.29,12.786,20.789,18.096
			c16.499,5.31,29.129,1.09,29.129,1.09S235.313,254.683,212.863,252.108z"/>
		<linearGradient id="XMLID_19_" gradientUnits="userSpaceOnUse" x1="308.2969" y1="271.183" x2="333.8976" y2="250.7025">
			<stop  offset="0" style="stop-color:#F6B57E"/>
			<stop  offset="0.9848" style="stop-color:#F1AD00"/>
		</linearGradient>
		<path id="XMLID_4680_" style="fill:url(#XMLID_19_);" d="M307.839,261.861c0,0,9.825-19.344,46.806-16.12
			c0,0-25.981,11.758-32.619,20.671l-1.477,1.637L307.839,261.861z"/>
		<path id="XMLID_4679_" style="fill:#8F625B;" d="M354.645,245.74c0,0-2.804,22.237-34.096,22.308
			C320.549,268.048,319.182,262.05,354.645,245.74z"/>
		<circle id="XMLID_4678_" style="fill:#632716;" cx="291.873" cy="283.543" r="3.666"/>
		<path id="XMLID_4677_" style="fill:#632716;" d="M286.064,308.628c0,0-0.007,0.02-0.02,0.058c-0.005,0.015-0.012,0.034-0.02,0.057
			c-0.009,0.028-0.019,0.061-0.031,0.099c-0.047,0.15-0.116,0.382-0.191,0.685c-0.155,0.605-0.341,1.498-0.471,2.59
			c-0.061,0.546-0.116,1.142-0.135,1.774c-0.028,0.633-0.017,1.302,0.016,1.995c0.025,0.345,0.042,0.699,0.086,1.053
			c0.02,0.177,0.036,0.357,0.06,0.537c0.027,0.179,0.054,0.359,0.081,0.54c0.048,0.363,0.134,0.721,0.199,1.087
			c0.086,0.36,0.166,0.725,0.267,1.084c0.108,0.357,0.198,0.721,0.328,1.071c0.061,0.177,0.121,0.353,0.182,0.529
			c0.061,0.176,0.136,0.345,0.203,0.517c0.069,0.172,0.138,0.343,0.207,0.513c0.077,0.167,0.154,0.332,0.231,0.497
			c0.078,0.164,0.149,0.331,0.232,0.491c0.084,0.159,0.168,0.317,0.251,0.473c0.085,0.156,0.162,0.315,0.251,0.465
			c0.09,0.15,0.179,0.298,0.268,0.444c0.089,0.147,0.176,0.292,0.262,0.436c0.094,0.139,0.187,0.276,0.279,0.411
			c0.356,0.551,0.748,1.032,1.095,1.491c0.187,0.218,0.367,0.427,0.537,0.626c0.086,0.1,0.169,0.197,0.25,0.292
			c0.086,0.09,0.169,0.177,0.25,0.262c0.328,0.334,0.599,0.645,0.853,0.867c0.495,0.462,0.778,0.726,0.778,0.726
			s-0.313-0.229-0.86-0.629c-0.281-0.193-0.587-0.469-0.958-0.766c-0.092-0.076-0.186-0.154-0.284-0.234
			c-0.093-0.085-0.189-0.173-0.287-0.263c-0.197-0.181-0.404-0.371-0.62-0.569c-0.407-0.421-0.866-0.866-1.299-1.386
			c-0.111-0.128-0.224-0.257-0.338-0.388c-0.107-0.137-0.215-0.276-0.324-0.416c-0.109-0.141-0.22-0.283-0.332-0.427
			c-0.11-0.145-0.211-0.299-0.318-0.45c-0.106-0.153-0.213-0.307-0.321-0.462c-0.107-0.156-0.201-0.321-0.304-0.483
			c-0.101-0.163-0.202-0.328-0.304-0.493c-0.094-0.17-0.188-0.341-0.283-0.513c-0.093-0.173-0.193-0.343-0.28-0.521
			c-0.086-0.178-0.173-0.357-0.26-0.536c-0.182-0.356-0.325-0.729-0.486-1.097c-0.154-0.371-0.285-0.75-0.424-1.126
			c-0.118-0.382-0.256-0.759-0.355-1.142c-0.052-0.191-0.105-0.382-0.157-0.572c-0.05-0.19-0.09-0.382-0.135-0.571
			c-0.094-0.379-0.158-0.758-0.231-1.131c-0.127-0.747-0.226-1.477-0.279-2.172c-0.062-0.695-0.081-1.357-0.086-1.968
			c-0.002-1.224,0.085-2.249,0.18-2.972c0.046-0.362,0.094-0.649,0.131-0.851c0.01-0.051,0.018-0.096,0.025-0.134
			c0.009-0.044,0.017-0.082,0.024-0.112c0.011-0.052,0.017-0.079,0.017-0.079c0.172-0.8,0.96-1.309,1.76-1.137
			c0.8,0.172,1.309,0.96,1.137,1.76c-0.012,0.056-0.027,0.11-0.045,0.163L286.064,308.628z"/>
		<path id="XMLID_4676_" style="fill:#632716;" d="M360.478,299.136c0,0,9.709,1.878,11.487,7.429
			c1.777,5.551-2.729,11.931-4.234,12.611s-8.149-2.612-8.402-10.02C359.076,301.749,360.478,299.136,360.478,299.136z"/>
	</g>
	<g id="XMLID_4482_">
		<g id="XMLID_498_">
			<g id="XMLID_530_">
				<path id="XMLID_559_" style="fill:#595757;" d="M434.252,296.55c0,2.112,0.16,4.128,0.48,6.048h-2.976l-0.384-3.168
					c-1.536,2.369-4.64,3.617-9.312,3.744c-2.496-0.032-4.433-0.68-5.808-1.944c-1.376-1.264-2.064-2.888-2.064-4.872
					c0.096-3.04,1.408-5.272,3.936-6.696c2.528-1.424,5.536-2.136,9.024-2.136h4.032c0.223-4.256-2.273-6.464-7.488-6.624
					c-2.72,0.16-4.992,0.928-6.816,2.304l-1.152-2.496c2.464-1.728,5.184-2.592,8.16-2.592c3.872,0.032,6.576,0.92,8.112,2.664
					c1.536,1.745,2.288,4.248,2.256,7.512V296.55z M431.18,290.214h-4.416c-6.017,0.161-9.152,2.144-9.408,5.952
					c0.031,3.008,1.664,4.481,4.896,4.416c4.928-0.064,7.904-1.952,8.928-5.664V290.214z"/>
				<path id="XMLID_557_" style="fill:#595757;" d="M440.837,267.462h3.072v35.617h-3.072V267.462z"/>
				<path id="XMLID_554_" style="fill:#595757;" d="M451.934,271.494c0.16-1.696,0.96-2.528,2.4-2.496
					c1.536-0.032,2.4,0.8,2.592,2.496c0,1.568-0.864,2.369-2.592,2.4C452.766,273.766,451.965,272.966,451.934,271.494z
					 M452.894,303.078v-24.577h3.072v24.577H452.894z"/>
				<path id="XMLID_552_" style="fill:#595757;" d="M461.303,301.254l16.704-20.16h-15.744v-2.592h19.584v2.112l-16.416,19.776
					h16.704v2.688h-20.832V301.254z"/>
				<path id="XMLID_550_" style="fill:#595757;" d="M486.416,267.462h3.072v16.032c1.344-3.008,4.128-4.672,8.352-4.992
					c3.264,0.065,5.664,1.097,7.2,3.096c1.536,2,2.304,4.649,2.304,7.944v13.536h-2.976v-13.536c0.16-5.216-2.208-7.936-7.104-8.16
					c-2.304,0.064-4.097,0.816-5.376,2.256c-1.28,1.44-2.081,3.216-2.4,5.328v14.112h-3.072V267.462z"/>
				<path id="XMLID_547_" style="fill:#595757;" d="M513.642,271.494c0.16-1.696,0.96-2.528,2.4-2.496
					c1.536-0.032,2.4,0.8,2.592,2.496c0,1.568-0.864,2.369-2.592,2.4C514.474,273.766,513.673,272.966,513.642,271.494z
					 M514.602,303.078v-24.577h3.072v24.577H514.602z"/>
				<path id="XMLID_545_" style="fill:#595757;" d="M526.755,278.502l8.64,19.872l8.256-19.872h3.36l-0.288,0.576l-8.256,18.72
					c-1.44,3.617-3.08,6.664-4.92,9.144c-1.841,2.48-4.553,4.248-8.136,5.304l-1.152-2.304c4.544-1.28,7.744-4.016,9.6-8.208
					l-10.464-23.233H526.755z"/>
				<path id="XMLID_542_" style="fill:#595757;" d="M561.469,303.174c-7.904-0.192-11.969-4.288-12.192-12.288
					c0.031-3.968,1.184-7.072,3.456-9.312c2.272-2.24,5.312-3.392,9.12-3.456c3.936,0.096,6.992,1.272,9.168,3.528
					c2.176,2.256,3.28,5.144,3.312,8.664C574.172,298.695,569.885,302.982,561.469,303.174z M561.565,300.486
					c6.304-0.256,9.536-3.552,9.696-9.888c-0.096-6.272-3.264-9.536-9.504-9.792c-6.272,0.161-9.408,3.488-9.408,9.984
					C552.348,297.095,555.421,300.327,561.565,300.486z"/>
				<path id="XMLID_540_" style="fill:#595757;" d="M599.446,296.55c-0.032,2.112,0.127,4.128,0.48,6.048h-3.072l-0.096-3.36
					c-1.952,2.561-4.865,3.872-8.736,3.936c-3.329-0.032-5.712-1.04-7.152-3.024c-1.44-1.984-2.129-4.688-2.064-8.112v-13.536h3.072
					v12.96c-0.064,2.657,0.36,4.784,1.272,6.384c0.912,1.601,2.664,2.417,5.256,2.448c5.28-0.352,7.936-2.72,7.968-7.104v-14.688
					h3.072V296.55z"/>
				<path id="XMLID_538_" style="fill:#595757;" d="M605.551,300.102c0.128-1.6,0.896-2.4,2.304-2.4c1.536,0,2.4,0.8,2.592,2.4
					c-0.257,1.568-1.12,2.369-2.592,2.4C606.319,302.375,605.551,301.575,605.551,300.102z"/>
				<path id="XMLID_536_" style="fill:#595757;" d="M636.041,301.446c-2.624,1.121-5.28,1.697-7.968,1.728
					c-8.096-0.16-12.288-4.256-12.576-12.288c0.32-8.384,4.832-12.64,13.536-12.768c2.624,0.032,5.056,0.737,7.296,2.112
					l-0.768,2.496c-2.112-1.184-4.352-1.792-6.72-1.824c-6.656,0-10.049,3.296-10.176,9.888c0.16,6.24,3.456,9.408,9.888,9.504
					c2.368-0.064,4.704-0.576,7.008-1.536L636.041,301.446z"/>
				<path id="XMLID_533_" style="fill:#595757;" d="M650.786,303.174c-7.904-0.192-11.969-4.288-12.192-12.288
					c0.032-3.968,1.184-7.072,3.456-9.312c2.272-2.24,5.312-3.392,9.12-3.456c3.936,0.096,6.992,1.272,9.168,3.528
					c2.176,2.256,3.28,5.144,3.312,8.664C663.49,298.695,659.202,302.982,650.786,303.174z M650.882,300.486
					c6.304-0.256,9.536-3.552,9.696-9.888c-0.096-6.272-3.264-9.536-9.504-9.792c-6.272,0.161-9.408,3.488-9.408,9.984
					C641.666,297.095,644.738,300.327,650.882,300.486z"/>
				<path id="XMLID_531_" style="fill:#595757;" d="M668.123,285.222c0-2.016-0.096-4.032-0.288-6.048h2.88v0.384l0.192,3.456
					c1.44-2.944,4.096-4.448,7.968-4.512c3.392,0.096,5.824,1.824,7.296,5.184c1.92-3.584,4.768-5.312,8.544-5.184
					c3.168,0.096,5.496,1.208,6.984,3.336c1.488,2.129,2.232,4.76,2.232,7.896v13.344h-3.264v-13.152
					c-0.064-5.632-2.177-8.48-6.336-8.544c-4.193,0.161-6.464,2.369-6.816,6.624v15.072h-3.264v-14.496
					c0.064-4.736-1.888-7.136-5.856-7.2c-4.289,0.161-6.689,2.561-7.2,7.2v14.496h-3.072V285.222z"/>
			</g>
			<path id="XMLID_526_" style="fill:#595757;" d="M414.187,258.549v-64.42h24.358l-5.769,29.806l-6.089-4.166l3.846-18.589h-8.974
				v57.369H414.187z M429.571,248.294v-26.281h7.692v33.331h-11.538v-7.051H429.571z M468.672,251.819h5.128v-50.318h-30.127v-7.371
				h40.703v7.371h-2.884v57.048h-12.82V251.819z"/>
			<g id="XMLID_523_">
				<path id="XMLID_525_" style="fill:#595757;" d="M478.907,258.541v-2.048c-1.398,0.881-2.926,1.575-4.548,2.048H478.907z"/>
				<path id="XMLID_524_" style="fill:#595757;" d="M464.251,252.087c-7.501-2.186-12.982-9.111-12.982-17.317
					c0-9.961,8.075-18.036,18.036-18.036c3.529,0,6.821,1.015,9.602,2.767v-8.845c-2.97-1.184-6.21-1.835-9.602-1.835
					c-14.332,0-25.95,11.618-25.95,25.95c0,6.655,2.506,12.724,6.625,17.317H464.251z"/>
			</g>
			<path id="XMLID_520_" style="fill:#595757;" d="M600.66,192.974v29.165h27.883v-29.165H600.66z M620.53,215.088h-11.858v-15.063
				h11.858V215.088z"/>
			<g id="XMLID_517_">
				<polygon id="XMLID_519_" style="fill:#595757;" points="583.032,213.165 583.032,210.922 596.493,210.922 596.493,204.832 
					583.032,204.832 583.032,199.384 595.211,199.384 595.211,192.974 561.148,192.974 561.148,199.384 575.02,199.384 
					575.02,204.832 561.239,204.832 561.239,210.922 575.02,210.922 575.02,213.165 560.598,219.575 565.085,224.062 
					579.186,217.973 591.686,223.742 597.134,219.575 				"/>
				<polygon id="XMLID_518_" style="fill:#595757;" points="566.392,204.449 566.304,204.449 566.367,204.512 				"/>
			</g>
			<rect id="XMLID_516_" x="561.128" y="192.974" style="fill:#595757;" width="6.41" height="9.706"/>
			<path id="XMLID_515_" style="fill:#595757;" d="M512.102,251.819h-23.735c-0.069,0-0.125,0.068-0.125,0.151v6.748
				c0,0.084,0.056,0.151,0.125,0.151h23.735c0.069,0,0.125-0.068,0.125-0.151v-6.748
				C512.227,251.887,512.171,251.819,512.102,251.819z"/>
			<polygon id="XMLID_514_" style="fill:#595757;" points="682.779,216.164 682.779,209.113 703.612,209.113 696.881,225.816 
				703.932,225.816 703.932,232.866 700.407,232.866 700.407,258.79 683.42,258.79 683.42,251.739 692.394,251.739 692.394,232.866 
				681.818,232.866 681.818,225.816 688.869,225.816 693.035,216.164 			"/>
			<rect id="XMLID_513_" x="686.946" y="196.428" style="fill:#595757;" width="16.986" height="7.051"/>
			<rect id="XMLID_512_" x="636.08" y="193.055" style="fill:#595757;" width="8.013" height="13.461"/>
			<rect id="XMLID_511_" x="659.864" y="193.055" style="fill:#595757;" width="8.013" height="13.461"/>
			<rect id="XMLID_510_" x="651.099" y="198.915" style="fill:#595757;" width="25.542" height="8.013"/>
			<rect id="XMLID_509_" x="636.079" y="211.83" style="fill:#595757;" width="8.013" height="48.368"/>
			<rect id="XMLID_508_" x="683.42" y="193.392" style="fill:#595757;" width="7.051" height="10.087"/>
			<g id="XMLID_505_">
				<path id="XMLID_507_" style="fill:#595757;" d="M663.87,210.029c-0.418,0-0.832,0.022-1.24,0.062h0.043v8.117
					c0.381-0.108,0.782-0.167,1.196-0.167c2.437,0,4.432,1.994,4.432,4.432v37.883h8.339V222.8
					C676.641,215.776,670.894,210.029,663.87,210.029z"/>
				<rect id="XMLID_506_" x="654.661" y="210.091" style="fill:#595757;" width="8.013" height="50.266"/>
			</g>
			<path id="XMLID_504_" style="fill:#595757;" d="M624.098,226.626h-58.414h-2.843v18.919h8.78l41.781-0.01v-7.051h-42.548v-5.128
				h48.074v2.564v2.564v7.752c-5.278,7.61-14.075,12.594-24.037,12.594c-7.163,0-13.722-2.578-18.805-6.854h-10.454
				c6.732,8.789,17.333,14.458,29.259,14.458c13.737,0,25.716-7.52,32.05-18.666v-21.143H624.098z"/>
			<path id="XMLID_499_" style="fill:#595757;" d="M555.707,251.49h-30.145c-0.084,0-0.151-0.068-0.151-0.151v-6.748
				c0-0.084,0.068-0.151,0.151-0.151h27.901c0.084,0,0.151-0.068,0.151-0.151v-6.748c0-0.084-0.068-0.151-0.151-0.151h-27.901
				c-0.084,0-0.151-0.068-0.151-0.151v-2.767c12.334-1.28,22.86-8.645,28.524-19.041v-0.092v-22.346v-0.151h-0.151h-3.411h-57.616
				h-3.411h-0.151v0.151v21.631v0.807c5.664,10.396,16.19,17.761,28.524,19.041v2.767c0,0.084-0.068,0.151-0.151,0.151h-27.901
				c-0.084,0-0.151,0.068-0.151,0.151v6.748c0,0.084,0.068,0.151,0.151,0.151h27.901c0.083,0,0.151,0.068,0.151,0.151v3.986v2.913
				v6.9c0,0.084,0.068,0.151,0.151,0.151h37.836c0.084,0,0.151-0.068,0.151-0.151v-6.748
				C555.858,251.558,555.79,251.49,555.707,251.49z M525.411,200.041c0-0.084,0.068-0.151,0.151-0.151h20.53
				c0.083,0,0.151,0.068,0.151,0.151v8.03c0,0.084-0.068,0.151-0.151,0.151h-20.53c-0.084,0-0.151-0.068-0.151-0.151V200.041z
				 M496.887,208.072v-8.03c0-0.084,0.068-0.151,0.151-0.151h20.53c0.083,0,0.151,0.068,0.151,0.151v8.03
				c0,0.084-0.068,0.151-0.151,0.151h-20.53C496.954,208.223,496.887,208.155,496.887,208.072z M517.719,218.798v8.014
				c-8.016-1.054-15.009-5.354-19.615-11.539h17.422h2.042h7.994h3.965h15.499c-4.606,6.184-11.599,10.485-19.615,11.539v-8.014
				H517.719z"/>
		</g>
	</g>
	<g id="XMLID_4386_">
		<g id="XMLID_235_">
			<path id="XMLID_262_" style="fill:#595757;" d="M419.19,325.83l-1.089,11.888h-3.186l1.366-16.249h-1.089v-1.59h2.909
				l-0.732-2.091h3.549l0.772,2.091h2.863v1.59h-5.001l-0.185,2.771h4.73l-0.27,13.478h-4.684v-1.57h1.412l0.27-10.318H419.19z
				 M428.914,320.467l-0.95,2.685h-3.411l1.814-5.363h3.411l-0.317,1.089h6.637v1.59H428.914z M428.782,335.237l2.223-0.541v1.656
				l-6.36,1.544v-1.636l0.864-0.205V324.24l10.496-0.864v1.728l-3.727,0.409l0.91,3.048l2.863-1.366v3.318l-1.953,0.91l1.907,6.294
				h-3.411l-3.318-11.842l-0.495,0.046V335.237z"/>
			<path id="XMLID_255_" style="fill:#595757;" d="M468.714,322.696l3.859,2.408v3.866l-3.859-2.322V322.696z M473.668,329.874
				l-1.596,7.89H468.8l1.55-7.89H473.668z M469.163,317.834l3.642,2.316v3.681l-3.642-2.269V317.834z M481.981,324.788v12.976
				h-4.545v-1.57h1.273v-9.816h-0.587l-1.636,11.387h-3.272l1.682-10.885v-5.41h-1.412v-1.59h2.771l-0.541-1.728h3.589l0.587,1.728
				h2.415v1.59h-4.136v3.318H481.981z M486.031,320.968l-0.369,1.999h-3.18l1.003-4.862h3.134l-0.224,1.273h3.589v1.59H486.031z
				 M486.071,325.606h-2.817v-1.59h6.544v0.95l-1.953,4.73h2.276v1.59h-1.913v6.478h-5.133v-1.55h1.768v-4.928h-2.269v-1.59h1.953
				L486.071,325.606z"/>
			<path id="XMLID_251_" style="fill:#595757;" d="M531.696,318.692l-4.908,6.412h-4.229l5.047-6.412H531.696z M539.012,328.106
				h-6.999l-5.271,9.381h-3.912l5.41-9.381h-4.499v-1.596h18.544l-0.363,10.977h-8.82v-1.564h5.548L539.012,328.106z
				 M533.695,318.105h4.182l5.542,6.999h-4.314L533.695,318.105z"/>
			<path id="XMLID_244_" style="fill:#595757;" d="M577.031,317.834h3.279l-0.409,1.768h3.543v1.59h-3.912l-0.68,2.909h3.82v1.59
				h-2.184v3.094h2.639v1.59h-2.639v4.182l2.593-1.181v1.775l-6.953,2.929v-1.728l1.181-0.567v-5.41h-1.728v-1.59h1.728v-3.094
				h-2.184L577.031,317.834z M588.351,321.331h-3.318l-1.089-3.364h3.318L588.351,321.331z M591.986,322.01h4.592v15.708h-5.225
				v-1.57h2.045v-2.362h-6.228v3.932h-3.18V322.01h4.816v-4.222h3.18V322.01z M587.17,323.607v3.404h6.228v-3.404H587.17z
				 M587.17,328.601v3.595h6.228v-3.595H587.17z M593.576,317.966h3.233l-0.957,3.364h-3.272L593.576,317.966z"/>
			<path id="XMLID_240_" style="fill:#595757;" d="M629.51,330.969h8.682v-11.182h-8.18v-1.544h19.818v1.544h-8.273v11.182h8.774
				v1.59h-8.774v5.159h-3.365v-5.159h-8.682V330.969z M630.236,321.469h3.503l3.318,7.864h-3.595L630.236,321.469z M649.328,321.469
				l-2.909,7.864h-3.635l2.909-7.864H649.328z"/>
			<path id="XMLID_236_" style="fill:#595757;" d="M703.813,325.104h-20.998l3.589-7.316h3.681l-2.771,5.726h12.086l-1.722-4.183
				h3.767L703.813,325.104z M683.81,337.579v-10.43h19.316v10.43H683.81z M687.175,328.739v7.27h12.587v-7.27H687.175z"/>
		</g>
	</g>
</g>
</svg>
